<svg width="2184" height="2184" viewBox="0 0 2184 2184" fill="none" xmlns="http://www.w3.org/2000/svg">
<g clip-path="url(#clip0_1_2)">
<rect width="2184" height="2184" fill="#FF9B00"/>
<path d="M0 1092V2184H1092H2184V1092V0H1092H0V1092ZM1110.67 136C1125.33 138.4 1132.53 140.267 1134.53 142.267C1136.53 144.267 1135.73 149.867 1130.93 169.867L1128.8 178.933L1120 178.133C1115.2 177.6 1106.13 175.867 1099.87 174.267L1088.4 171.333L1090.93 160C1092.27 153.733 1094 145.2 1094.93 140.933C1096.27 134.133 1096.8 133.2 1099.2 133.866C1100.8 134.133 1105.87 135.2 1110.67 136ZM1272.67 190.533C1273.07 191.2 1276.4 192.8 1280.13 194C1283.87 195.2 1292 198.8 1298.4 201.867C1304.8 204.933 1312 208.267 1314.4 209.2C1316.67 210.267 1318.67 211.333 1318.67 211.6C1318.67 213.467 1310.13 228.933 1307.87 231.333C1305.73 233.467 1304.93 233.733 1302.93 232.267C1298.8 229.333 1286.13 223.867 1284.27 224.267C1282.27 224.667 1276.67 234 1274 241.333C1272.27 246.133 1264.53 262.667 1244.67 303.333C1238.67 315.733 1232.4 328.933 1230.67 332.667C1229.07 336.267 1224.4 346 1220.53 354.133C1216.53 362.267 1213.33 369.467 1213.33 370.267C1213.33 371.067 1215.87 372.667 1219.07 374C1228.93 377.867 1236 381.733 1236 383.2C1236 384 1234.13 387.867 1232 391.867C1229.73 395.867 1228 399.867 1228 400.933C1228 405.467 1225.2 404.533 1192.67 389.467C1188.27 387.333 1183.07 385.067 1181.07 384.267C1178.93 383.333 1177.33 382 1177.33 380.933C1177.33 380 1180.27 373.2 1183.87 366C1191.07 351.2 1215.33 301.333 1223.2 284.667C1226.13 278.8 1231.33 267.333 1234.93 259.333C1238.67 251.2 1246 236 1251.33 225.333C1256.67 214.667 1262.67 202.267 1264.67 197.6C1268.13 190 1270.8 187.6 1272.67 190.533ZM975.6 206.933C978 208.4 980 210.4 980 211.467C980 213.733 973.2 224.933 966.4 234C963.6 237.6 961.333 241.2 961.333 241.733C961.333 242.267 958.267 247.333 954.533 252.8C950.933 258.267 948 263.867 948.267 265.067C948.533 266.267 955.467 272 963.867 277.6C972.267 283.2 980.667 289.067 982.533 290.667C984.4 292.267 987.867 294.4 990 295.467C992.267 296.533 996.267 299.467 999.067 301.867L1004.27 306.133L996.4 318.8C992.133 325.733 987.6 332.8 986.267 334.667C978.267 345.733 967.067 364.8 967.733 366.267C968.933 368.4 976.667 373.867 1002.4 390.933C1015.73 399.867 1024 406.267 1024 407.6C1024 408.8 1021.73 412.8 1018.93 416.533C1012.8 424.8 996 450.4 996 451.467C996 451.867 994 455.333 991.6 459.067C989.2 462.933 985.6 468.533 983.6 471.6C981.067 475.6 979.067 477.333 976.933 477.333C974.133 477.333 964.267 471.6 962.4 468.933C960.933 466.667 962.4 464 982 434C985.867 428.133 990.267 420.933 992 418L994.933 412.667L990.533 408.933C988 406.933 980.667 401.6 974 397.333C967.467 392.933 961.467 388.933 960.667 388.267C960 387.733 954.4 384 948.4 380.133C942.267 376.267 937.333 372.4 937.333 371.467C937.333 370.533 945.733 357.067 956.133 341.467C966.4 325.867 974.533 312.4 974.267 311.6C974 310.667 970.4 307.867 966.533 305.2C957.733 299.2 932.4 282.533 929.333 280.667C924 277.467 918.667 272.533 918.667 270.933C918.667 270 920.133 267.2 921.867 264.933C923.6 262.533 926.4 258.267 928.133 255.333C933.867 245.6 936.533 241.333 943.6 230.533C947.467 224.667 952.133 217.2 953.867 213.867C955.733 210.533 958.667 206 960.667 203.733C964.133 199.867 964.267 199.867 967.6 202.133C969.6 203.333 973.067 205.467 975.6 206.933ZM1096.27 215.867C1101.2 216.667 1106.8 218 1108.67 218.667C1110.67 219.467 1113.6 220 1115.33 220C1117.07 220 1118.8 220.533 1119.33 221.333C1121.47 224.8 1109.87 269.333 1106.8 269.333C1106.4 269.333 1105.2 270.933 1104.27 272.933C1102 278.133 1094.93 285.6 1088.27 290C1083.2 293.333 1081.07 293.867 1072.93 293.867L1063.33 294L1063.47 287.6C1063.87 278.933 1064.53 277.733 1069.47 276.667C1076.67 275.067 1089.73 259.867 1087.33 256C1086.93 255.333 1083.73 254.4 1080.27 254C1070.8 252.667 1070.67 252.667 1071.87 248.4C1072.53 246.4 1073.73 239.867 1074.67 234C1075.47 228.133 1076.8 221.067 1077.47 218.4C1078.93 212.8 1077.6 212.933 1096.27 215.867ZM1358.4 231.467C1364.53 234.133 1399.2 250.8 1399.73 251.333C1400.4 252 1384.67 286.667 1381.33 292C1379.6 294.667 1356.93 342.133 1354.67 347.867C1353.73 350.267 1350 357.733 1346.4 364.4C1342.93 371.067 1339.6 377.733 1339.2 379.2C1338.67 380.8 1334.13 390.133 1329.2 400.133C1324.13 410.133 1320 418.533 1320 419.067C1320 421.467 1309.07 442.8 1307.47 443.467C1306.53 443.867 1301.2 442.133 1295.87 439.6C1290.4 437.067 1281.87 433.067 1276.67 430.667C1264 424.8 1260 421.733 1260.93 418.933C1262.67 413.6 1268.4 402.667 1270 401.333C1271.47 400.133 1274.13 400.933 1281.47 404.533C1286.8 407.2 1291.87 409.333 1292.67 409.333C1294.27 409.333 1296.13 405.733 1310 376.667C1319.33 357.333 1326.8 341.867 1350.27 293.333C1360.4 272.667 1363.87 264.133 1363.07 262.667C1362.4 261.6 1357.33 258.4 1351.87 255.733C1346.4 253.067 1342 250.267 1342 249.6C1342 247.333 1351.2 229.467 1352.4 229.467C1353.07 229.333 1355.73 230.267 1358.4 231.467ZM759.2 237.867C761.733 238.933 766.133 241.867 769.067 244.533C774.133 249.2 787.6 268.133 790.933 275.2C791.733 277.067 792.8 278.667 793.333 278.667C793.867 278.667 795.067 280.4 796 282.533C800.267 293.067 816 299.067 825.867 294C827.867 292.933 830.4 292 831.2 292C832.133 292 835.333 295.6 838.4 300C844 307.867 844 308 842 312C840.8 314.133 839.333 316 838.667 316C835.6 316 833.067 324.533 833.6 332.667C834.267 340.267 835.2 342.133 845.067 357.067C860.933 380.933 864.533 388.933 864.267 400.267C864 415.333 854.933 429.733 841.333 436.667C838.8 438 835.467 439.6 834.133 440.4C832 441.467 830.8 440.8 827.733 437.2C823.733 432.4 818.667 423.2 818.667 420.8C818.667 420 820.933 418.267 823.733 416.933C830.8 413.6 834 408.667 833.867 401.333C833.733 398 832.8 393.867 831.867 392C829.867 388.533 828.8 386.8 818 370C814.267 364.133 810 356.667 808.4 353.333C805.467 346.8 803.733 335.333 805.333 332C805.867 330.933 807.2 328.133 808.4 325.867C810.4 322.133 810.4 321.467 808.667 320C807.6 319.2 805.6 318.8 804.133 319.333C802.667 319.733 797.733 319.2 793.333 317.867C786.533 316 784.133 314.4 778.267 308.133C774.533 303.867 770.4 298.8 769.333 296.533C768.267 294.4 765.467 289.867 763.067 286.4C760.667 282.933 758.667 279.333 758.667 278.533C758.667 277.733 757.867 276.267 756.8 275.2C755.733 274.267 753.733 272 752.4 270.267C746.8 263.067 739.333 262.133 729.067 267.333C725.467 269.2 722.267 270.667 722.133 270.667C721.467 270.667 714.267 259.733 711.867 255.067C709.733 250.933 709.733 250.8 713.2 248.4C718.267 244.667 729.467 238.8 734 237.467C740.267 235.6 754.267 235.867 759.2 237.867ZM663.733 290.267C674.533 302.8 674.933 304.8 667.2 308.4C664.667 309.6 661.467 312.533 659.867 314.933C655.467 322 656.933 329.2 665.467 342.667C669.467 348.933 673.6 355.067 674.933 356.4C678.667 360.667 685.067 375.067 686 381.733C686.933 389.067 684.8 400.8 681.6 404.267C679.733 406.533 680.133 406.667 687.6 406.667C692.667 406.667 697.333 407.6 700.8 409.2C708.267 412.8 718 422.8 722.133 431.067C724.133 434.933 729.2 443.2 733.6 449.6C739.867 458.667 742.4 461.333 745.6 462C751.867 463.467 760.667 461.6 764.667 457.867C766.533 456.133 768.8 454.933 769.467 455.333C771.733 456.8 781.333 471.867 781.333 473.867C781.333 476.533 772.267 483.2 762.533 487.867C747.067 495.333 732.4 492.4 720.4 479.467C714 472.8 702 455.733 699.067 449.333C696.533 443.733 687.733 434.4 683.067 432.533C677.467 430.133 670.4 430.133 664.4 432.667C661.867 433.733 659.2 434.667 658.667 434.667C657.2 434.667 649.6 422.133 648.533 418C647.867 415.333 648.4 414 651.067 412C660.933 404.267 661.067 390.133 651.733 375.333C646.267 366.8 636.533 352.533 635.867 352C635.333 351.6 633.2 347.733 631.2 343.333C628 336.667 627.333 333.6 627.333 324.667C627.333 315.467 627.867 313.2 630.933 307.733C633.067 304.4 637.867 298.933 641.6 295.733C649.867 288.933 656.4 284.133 657.467 284.133C657.867 284 660.667 286.8 663.733 290.267ZM1552.53 307.867C1553.33 309.2 1553.87 327.867 1553.2 328.667C1552.93 328.933 1546.93 329.467 1540 330C1533.07 330.4 1525.6 331.067 1523.33 331.333C1521.2 331.6 1512.53 332.267 1504.4 332.8C1490.53 333.6 1488.93 334.133 1489.07 337.333C1489.07 339.6 1492.27 387.867 1492.8 396.267C1493.73 408.4 1496.13 407.2 1468.67 409.333C1458.4 410.133 1443.6 411.467 1435.73 412.267L1421.33 413.733V417.867C1421.33 420.133 1421.87 428.267 1422.53 436C1423.33 443.733 1424 456.533 1424.27 464.667L1424.67 479.333H1414.67C1405.6 479.333 1404.67 479.067 1404.4 476.667C1404.27 475.2 1403.2 461.067 1402 445.333C1400.8 429.6 1399.33 412 1398.8 406.267C1398.27 400.533 1398.27 395.6 1398.8 395.2C1399.6 394.667 1414.4 393.067 1461.33 388.267L1470 387.333L1470.13 380C1470.13 376 1469.47 362.8 1468.53 350.667C1467.6 338.533 1466.8 325.333 1466.8 321.2L1466.67 313.867L1489.07 312C1512.27 310.133 1547.47 307.2 1550.27 306.933C1551.07 306.8 1552.13 307.2 1552.53 307.867ZM1147.07 423.867C1147.73 424.533 1147.6 428.533 1146.8 432.8C1146.13 437.2 1145.07 444.667 1144.53 449.6C1143.6 460.133 1145.47 459.6 1121.6 457.067C1110.53 456 1106.27 455.067 1105.73 453.6C1104.93 451.733 1107.6 423.867 1108.8 420.667C1109.47 419.067 1145.2 422.133 1147.07 423.867ZM890.133 469.867C899.467 473.733 899.733 474.933 893.6 488.533C892 492.133 890.667 495.2 890.667 495.467C890.667 495.6 890 497.467 889.067 499.6C888.267 501.6 887.467 503.733 887.467 504.133C887.333 504.533 886.267 506.933 885.067 509.467C880.267 519.067 876 529.733 876 532.133C876 533.467 877.333 534.933 879.067 535.467C880.667 535.867 885.6 538 890 540C894.4 542 901.067 545.067 904.667 546.667C908.4 548.4 917.6 552.667 925.2 556.267C940.533 563.467 940.267 563.067 934.8 575.333C933.467 578.267 931.333 583.6 930 587.333C928.667 590.933 924.8 600 921.2 607.333C917.733 614.8 914.533 622.933 914.133 625.333C913.333 629.733 913.6 630.133 918.267 632.267C932.533 638.667 944.933 644.267 947.333 645.333C948.8 646 953.867 648.267 958.667 650.4C963.467 652.533 968.667 654.667 970.267 655.2C976.133 657.067 976.4 659.067 972.133 669.6C961.067 697.2 958.267 703.467 956.8 704.267C954.4 705.867 936.267 705.467 935.2 703.867C934.8 703.067 934.933 701.067 935.733 699.6C941.333 688.133 948.133 670.533 947.333 669.333C946.933 668.667 945.733 668 944.933 668C944 668 935.333 664.133 925.6 659.333C916 654.533 907.733 650.667 907.467 650.667C906.267 650.667 884 639.867 884 639.333C884 639.067 885.733 634.933 887.867 630.4C896.133 612.267 897.2 609.6 901.333 599.467C903.6 593.733 906.267 587.467 907.2 585.467C908.267 583.6 909.467 580 910 577.6C910.667 574.133 910.4 573.2 908.4 572.4C907.067 572 905.067 570.933 904 570C902.933 569.2 898.667 567.067 894.667 565.467C890.667 563.733 882.933 560.267 877.6 557.867C872.267 555.333 867.067 553.333 866 553.333C864.933 553.333 864 552.933 864 552.267C864 551.733 861.2 550.133 857.6 548.8C849.2 545.467 846.533 542.933 848 540.133C850 536.267 854.933 524.8 856.667 520C857.6 517.333 860.4 511.067 863.067 506C865.6 500.8 868.133 495.2 868.667 493.333C869.2 491.467 870.667 487.6 872 484.667C873.467 481.733 875.733 476.533 877.2 472.933C878.667 469.467 880.4 466.667 881.067 466.667C881.733 466.667 885.733 468.133 890.133 469.867ZM1644.4 475.6C1644.8 476.933 1647.6 484.933 1650.4 493.2C1653.33 501.6 1655.47 509.2 1655.07 510.133C1653.87 513.333 1621.2 524.4 1619.07 522.267C1618.13 521.2 1611.07 500.667 1608.8 492.533L1607.07 485.733L1611.87 483.6C1614.53 482.4 1618.8 480.667 1621.33 479.867C1623.87 479.067 1627.87 477.6 1630 476.667C1639.6 472.667 1643.33 472.4 1644.4 475.6ZM1120.93 497.467C1129.47 498.133 1136.93 499.067 1137.33 499.733C1139.07 501.6 1134.93 532.667 1132 540.4C1127.47 552.4 1118.13 564 1109.33 568.267C1102 571.867 1093.73 573.867 1092.8 572.267C1092.53 571.733 1091.87 568.533 1091.47 564.933C1090.53 558.667 1090.53 558.533 1095.07 556.667C1102 553.733 1107.47 548.667 1109.87 542.533C1113.2 534.4 1111.87 532.267 1103.6 531.733L1096.67 531.333L1096.8 526C1097.73 503.467 1100.13 492.933 1104.13 495.333C1104.8 495.867 1112.27 496.667 1120.93 497.467ZM1572.53 517.467C1577.73 533.067 1578.53 536.667 1577.07 538.133C1574.53 540.533 1548.67 548.933 1539.07 550.533C1534.53 551.2 1528.93 551.6 1526.4 551.2C1524 550.933 1519.73 550.4 1517.07 550C1506.8 548.667 1492.67 538 1490.13 529.733C1489.07 526.4 1492.53 523.467 1499.73 521.467C1503.2 520.4 1504.4 520.8 1507.6 523.6C1512.8 528.133 1516.4 529.333 1524.4 529.333C1534.67 529.333 1535.2 528.533 1531.87 519.467C1530.4 515.067 1529.6 511.2 1530.27 510.667C1532.53 508.667 1559.6 499.2 1564.13 498.8C1565.73 498.667 1567.87 503.467 1572.53 517.467ZM582.667 514.133C596.267 518.8 608.533 523.2 610 523.867C611.467 524.533 618.4 527.067 625.333 529.333C632.267 531.733 639.6 534.533 641.733 535.467C646.133 537.733 646.4 536.133 636.133 566.4C630.8 582.533 628 588.8 626.4 589.067C624.533 589.467 576.533 573.333 567.333 569.333C565.867 568.667 559.867 566.667 554 564.8C537.733 559.6 532.8 557.733 532.267 556.267C532 555.2 543.467 519.333 547.867 507.6C549.733 502.8 549.733 502.8 582.667 514.133ZM1330.53 512C1337.33 513.867 1353.47 524.133 1354.67 527.2C1355.47 529.333 1354.53 531.467 1351.33 536C1349.07 539.333 1346.67 543.067 1346.27 544.267C1345.47 546.667 1340 547.733 1340 545.6C1340 544.933 1338.4 543.6 1336.4 542.667C1321.07 535.6 1317.47 538.133 1294.67 573.067C1283.07 590.8 1278.8 594 1265.07 595.467C1255.2 596.4 1254.27 597.6 1258 604C1260.53 608.4 1260.53 621.6 1258 627.067C1254.67 634.133 1248.13 645.467 1240.8 656.667C1230.8 671.867 1229.6 675.6 1232.53 683.333C1234.27 687.867 1236.53 690.533 1241.2 693.733C1246.67 697.333 1247.33 698.533 1246.67 701.333L1245.87 704.667H1229.07C1212.27 704.667 1212.27 704.667 1208.67 700.8C1202.67 694.267 1199.6 684.667 1200.53 674.933C1201.6 664.133 1203.47 660.4 1217.87 638.933C1224.27 629.067 1230.4 618.533 1231.33 615.333C1234.13 606.4 1231.2 597.067 1223.73 590.667L1219.87 587.333L1226 578C1232.13 568.533 1232.93 567.867 1234.67 570.667C1235.33 571.6 1239.33 572.4 1244.8 572.533C1259.73 572.8 1263.47 569.333 1283.73 537.6C1293.47 522.267 1299.87 515.467 1307.33 512.8C1313.6 510.533 1324.13 510.133 1330.53 512ZM1036.8 578.667C1039.07 590 1040.53 599.733 1040.13 600.133C1039.07 601.333 1022.93 604 1017.2 604C1013.33 604 1012.27 603.333 1010.4 599.6C1009.2 597.333 1007.73 592.667 1007.2 589.333C1006.13 581.6 1004.53 578.8 1000.8 577.333C998.667 576.533 997.2 574.4 996.267 570.533C995.467 567.333 995.067 564.533 995.333 564.267C996.267 563.333 1027.2 557.467 1030 557.733C1032.4 558 1033.2 560.533 1036.8 578.667ZM1413.6 563.867C1428.67 573.467 1437.33 586.667 1437.33 600.267C1437.33 609.333 1434.53 616 1423.33 632.667C1418.93 639.2 1414.67 645.867 1413.87 647.333C1406.13 661.6 1405.33 663.467 1405.33 668.933C1405.33 675.867 1406.8 679.067 1412.8 685.333L1417.33 690L1414.27 694.667C1412.67 697.067 1410.4 700.667 1409.2 702.533C1407.6 705.2 1406.13 705.867 1403.2 705.733C1401.07 705.467 1386.8 705.2 1371.33 705.067C1338.93 704.667 1338.67 704.533 1348.93 694.133C1359.07 683.733 1363.87 681.2 1373.6 680.8C1378.13 680.533 1382.13 680.267 1382.4 680.133C1382.53 680.133 1381.73 678.133 1380.53 675.867C1379.47 673.6 1378.13 667.333 1377.73 662.133C1376.8 650.8 1377.6 649.067 1392 627.467C1402.53 611.867 1406.53 603.733 1406.67 598.533C1406.67 593.6 1404 586.667 1402.13 586.667C1400.13 586.667 1393.33 579.733 1393.33 577.6C1393.33 576.267 1396.67 570.533 1402 562.933C1404.8 559.067 1406.27 559.2 1413.6 563.867ZM777.2 584.133C780.933 590 784 595.2 784 595.6C784 595.867 786.267 599.6 789.2 603.733C792 608 798.933 618.8 804.667 628C810.4 637.2 818.267 649.6 822.133 655.6C826.133 661.733 829.333 666.933 829.333 667.2C829.333 667.6 831.6 671.6 834.4 676.267C844 692 850.667 703.467 850.667 704.4C850.667 704.933 843.467 705.333 834.8 705.333C819.867 705.333 818.8 705.2 818 702.533C817.467 701.067 813.6 694.533 809.467 688.267C805.2 681.867 799.467 672.8 796.8 668C794.133 663.2 788.933 654.8 785.333 649.333C781.733 643.867 776 634.533 772.533 628.667C759.6 607.067 759.333 606.8 751.333 612.667C749.2 614.267 745.067 616.533 742.267 617.867C738.133 619.733 736.933 619.867 735.6 618.4C732.4 615.067 725.6 601.733 726.4 600.533C727.867 598.667 740 590.667 741.467 590.667C742.267 590.667 747.867 587.2 753.733 582.8C763.6 575.867 767.067 573.733 769.467 573.467C770 573.333 773.333 578.133 777.2 584.133ZM695.333 627.067C702.933 639.733 703.867 641.733 703.2 642.8C702.267 644.4 688.4 653.2 685.067 654.533C682.667 655.333 682.8 655.733 686 662C688 665.6 691.467 671.6 694 675.2C696.4 678.933 699.467 684.133 700.933 686.667C702.267 689.2 705.067 693.867 707.2 696.933C709.2 700 710.533 703.2 710 703.867C709.467 704.8 703.467 705.333 694.933 705.333H680.667L677.867 700.933C670 688.8 650.8 657.467 648.933 653.867L646.8 649.6L653.733 644.933C661.2 640 671.467 633.467 682 626.933C685.733 624.533 689.6 622.667 690.667 622.667C691.733 622.667 693.867 624.667 695.333 627.067ZM1533.6 634.4C1541.87 640.133 1551.2 646.667 1554.27 648.8C1560.13 652.933 1561.33 655.867 1558 658.667C1556.93 659.6 1556 661.067 1556 662C1556 663.067 1555.47 664 1554.93 664.267C1554.4 664.4 1551.87 667.6 1549.33 671.333C1546.8 674.933 1544.27 678.267 1543.87 678.667C1542.8 679.467 1533.6 693.2 1529.6 700.133L1526.53 705.333H1510.13C1501.07 705.333 1493.47 704.933 1492.93 704.533C1492 703.6 1505.47 683.733 1521.07 662.933L1524 658.8L1521.07 655.733C1517.2 651.867 1509.87 646.667 1508.13 646.667C1506.27 646.667 1502.53 640.933 1503.73 640C1504.27 639.6 1506.27 637.2 1508 634.667C1512 628.667 1516.13 624 1517.47 624C1518 624 1525.33 628.667 1533.6 634.4ZM1124.8 638C1137.47 644.267 1148.13 649.733 1148.53 650.4C1148.8 650.933 1146 657.733 1142.27 665.467C1138.4 673.2 1132.67 685.333 1129.47 692.533L1123.47 705.333H1093.33C1076.67 705.333 1062.8 704.933 1062.27 704.533C1061.87 704.133 1062 702.667 1062.67 701.467C1063.33 700.267 1068.93 688.533 1075.2 675.333C1081.6 662.133 1087.33 650.4 1088 649.333C1088.67 648.267 1091.73 642.667 1094.8 636.933C1097.87 631.333 1100.67 626.667 1101.07 626.667C1101.47 626.667 1112.13 631.733 1124.8 638ZM1607.87 747.067C1615.07 750.8 1619.33 756.533 1622 766C1623.6 771.467 1624 779.6 1623.6 806.133C1623.2 834.933 1622.8 840 1620.8 844C1617.73 850 1609.6 858.533 1605.47 860.133C1603.47 860.933 1406.13 861.733 1094.67 862.133C592.533 862.933 586.933 862.933 581.067 860.267C577.867 858.933 573.333 855.333 571.2 852.533C563.6 842.667 563.333 841.333 563.333 800.667V763.333L567.067 757.867C571.467 751.333 577.333 746.8 584.533 744.533C589.067 743.067 679.867 742.8 1095.87 743.333L1601.73 743.867L1607.87 747.067ZM1542.67 900.4C1542.53 902.133 1521.87 930.267 1514.93 938.133C1512.53 940.8 1510.67 943.2 1510.67 943.6C1510.67 944 1509.2 945.733 1507.33 947.467C1505.47 949.2 1504 951.2 1504 951.867C1504 952.667 1502.8 954 1501.33 954.933C1499.87 955.867 1498.67 957.2 1498.67 957.867C1498.67 958.533 1497.2 960.267 1495.6 961.867C1493.87 963.333 1491.07 966.8 1489.2 969.333C1487.47 971.867 1484.4 975.733 1482.4 978C1480.4 980.133 1478.67 982.4 1478.67 982.8C1478.67 983.2 1477.07 985.333 1475.2 987.467C1473.33 989.6 1470 993.867 1467.73 996.933C1465.47 1000.13 1463.07 1002.67 1462.4 1002.67C1461.87 1002.67 1461.47 1003.2 1461.73 1003.87C1461.87 1004.53 1460.53 1006.67 1458.67 1008.8C1456.8 1010.93 1450.53 1018.67 1444.67 1026C1438.8 1033.33 1432.4 1041.07 1430.4 1043.07C1428.27 1045.2 1426.67 1047.33 1426.67 1047.87C1426.67 1048.4 1424.93 1050.53 1422.93 1052.8C1420.8 1054.93 1416.67 1060 1413.73 1064C1410.67 1068 1406.13 1073.6 1403.6 1076.4C1401.07 1079.07 1398.67 1082.13 1398.27 1083.07C1397.87 1083.87 1392.4 1090.93 1386 1098.67C1379.73 1106.4 1372.93 1114.67 1370.93 1117.2C1368.93 1119.6 1366.67 1122.27 1366 1123.2C1365.2 1124 1362.53 1127.33 1360.13 1130.67C1357.6 1134 1354.93 1137.33 1354.13 1138C1353.33 1138.8 1352.13 1140.4 1351.33 1141.47C1349.87 1143.87 1338.4 1158.4 1333.73 1163.87C1332 1165.73 1330.67 1167.87 1330.67 1168.4C1330.67 1169.07 1330.13 1169.07 1329.33 1168.67C1328.67 1168.27 1328 1168.67 1328 1169.6C1328 1170.53 1325.87 1173.6 1323.33 1176.27C1320.8 1178.93 1318.67 1181.6 1318.67 1182C1318.67 1182.53 1317.87 1183.6 1317.07 1184.53C1316.13 1185.6 1314.4 1187.73 1313.33 1189.33C1311.33 1192.27 1308.8 1195.33 1303.6 1201.33C1301.87 1203.2 1296.8 1209.73 1292 1216C1287.33 1222.27 1278.8 1233.07 1273.2 1240.13C1251.73 1266.8 1241.73 1286.8 1234.4 1318L1230.27 1335.33L1229.87 1388C1229.47 1416.93 1229.2 1452.13 1228.93 1466L1228.67 1491.47L1224.93 1495.33C1222.93 1497.47 1221.33 1499.73 1221.33 1500.27C1221.33 1502.13 1144.53 1549.33 1141.47 1549.33C1140.67 1549.33 1140 1549.87 1140 1550.4C1140 1550.93 1135.6 1554 1130.4 1557.07C1125.07 1560.27 1116 1565.73 1110.27 1569.33C1104.67 1572.93 1097.07 1577.6 1093.6 1579.6C1090 1581.6 1084.53 1585.07 1081.2 1587.07C1074.93 1590.93 1041.2 1611.33 1036.67 1613.87C1033.6 1615.6 1029.6 1618.13 1017.33 1626C995.467 1640.27 987.733 1644 980.667 1644C972.4 1644 964.533 1639.73 960.8 1633.33C958 1628.67 958 1627.2 957.6 1488C957.2 1344.67 956.8 1332.53 952 1316.4C951.2 1314 950 1309.73 949.2 1306.93C947.467 1300.8 942.267 1287.2 937.6 1276.67C934.533 1269.47 932.133 1265.73 922.133 1251.33C920.533 1249.2 913.333 1239.87 905.867 1230.67C898.533 1221.47 887.2 1207.2 880.8 1198.93C874.267 1190.53 867.733 1182.4 866.133 1180.8C864.667 1179.07 859.467 1172.8 854.667 1166.67C849.867 1160.67 844.267 1153.6 842.133 1151.07C840 1148.67 836.133 1143.6 833.467 1140.13C830.8 1136.53 823.867 1127.87 818 1120.8C812.133 1113.6 803.467 1102.93 798.8 1096.93C794.133 1090.93 789.867 1085.73 789.467 1085.33C788.667 1084.67 765.733 1056 751.067 1037.33C747.867 1033.33 744.533 1029.07 743.733 1028C742.8 1026.93 739.6 1023.07 736.8 1019.33C733.867 1015.73 731.2 1012.4 730.8 1012C730.267 1011.6 726.933 1007.47 723.333 1002.93C714 991.067 708.533 984.267 703.333 978C700.933 975.067 696 968.933 692.4 964.4C688.933 959.867 678.533 946.8 669.333 935.2C646.133 906.133 643.733 902.667 644.533 900.533C645.2 898.8 704 898.667 1094 898.8C1432.13 898.933 1542.67 899.333 1542.67 900.4ZM1207.33 1560C1207.73 1560.67 1208 1617.2 1208 1685.6V1810L1204.67 1812.93C1202.67 1814.67 1199.47 1816 1197.2 1816C1192.4 1816 1186.67 1810.8 1186.67 1806.4C1186.13 1769.87 1186.8 1570.13 1187.33 1569.47C1189.47 1567.47 1203.47 1558.8 1204.93 1558.8C1205.73 1558.67 1206.8 1559.2 1207.33 1560ZM1155.73 1738.53L1156 1886.8L1152.13 1890.8C1150 1892.93 1147.2 1894.67 1146 1894.67C1142.27 1894.67 1136.27 1890.8 1135.33 1887.87C1134.27 1884.8 1133.33 1611.07 1134.27 1604.67C1134.8 1601.33 1136.53 1599.6 1143.73 1595.07C1148.67 1592.13 1153.33 1589.73 1154 1589.87C1154.93 1590.13 1155.47 1641.07 1155.73 1738.53ZM1104.13 1624.27C1104.4 1626.67 1104.67 1709.6 1104.67 1808.4V1988.27L1100.93 1991.47C1096 1995.73 1090.67 1995.6 1086.53 1991.2L1083.33 1987.73V1810.27V1632.67L1092.67 1626.4C1097.87 1622.93 1102.4 1620.13 1102.8 1620C1103.33 1620 1103.87 1622 1104.13 1624.27ZM1053.33 1789.2V1926.53L1049.47 1929.2C1044.4 1932.8 1037.33 1932.8 1033.6 1929.33L1030.67 1926.53L1030.93 1795.07L1031.33 1663.6L1040.67 1657.87C1045.87 1654.8 1050.8 1652.13 1051.73 1652.13C1052.93 1652 1053.33 1680.27 1053.33 1789.2ZM1000.93 1764.8C1001.2 1818.93 1000.8 1845.73 999.867 1848.13C997.067 1855.2 987.2 1856.4 981.867 1850.4C979.467 1847.87 979.333 1843.6 978.933 1772L978.667 1696.4L983.6 1693.07C993.333 1686.67 998 1684 999.333 1684.4C1000 1684.67 1000.67 1715.6 1000.93 1764.8ZM1206.4 1840.53C1211.87 1843.33 1214.53 1846.93 1215.2 1852.67C1216.67 1863.33 1210.93 1871.33 1200.27 1873.33C1189.33 1875.33 1180 1867.33 1180 1856C1180 1849.6 1184 1842.4 1188.67 1840.13C1192.67 1838.27 1202.27 1838.4 1206.4 1840.53ZM1003.6 1882.13C1012.27 1893.07 1006.93 1908.93 993.733 1911.47C983.2 1913.47 973.867 1906.4 973.333 1896C972.933 1888.4 973.2 1887.2 976.4 1883.6C980.533 1878.8 984.8 1877.33 993.2 1877.87C999.333 1878.13 1000.93 1878.8 1003.6 1882.13ZM1154.53 1919.33C1159.87 1922 1164.13 1931.47 1162.8 1937.6C1161.07 1945.2 1156.4 1950.4 1150.13 1951.47C1143.07 1952.8 1138.8 1952.27 1134.93 1949.73C1128.93 1945.87 1126.13 1933.73 1129.73 1926.67C1133.73 1918.67 1146.13 1914.93 1154.53 1919.33ZM1049.33 1956.67C1058.53 1961.47 1061.6 1973.07 1056 1982.27C1049.07 1993.73 1028.27 1991.33 1024.93 1978.67C1022.53 1969.2 1027.33 1959.73 1036.13 1956.53C1042.27 1954.27 1044.8 1954.27 1049.33 1956.67ZM1103.2 2020.53C1114.27 2027.73 1113.87 2046 1102.67 2050.53C1098.93 2052 1096.13 2052.4 1089.47 2052.13C1082.67 2051.87 1076 2044.4 1076 2036.93C1076 2022 1091.33 2012.67 1103.2 2020.53Z" fill="#1E2033"/>
<path d="M1614.67 843.867C1614.67 844.667 1615.2 845.6 1616 846C1616.8 846.4 1616.93 845.867 1616.53 844.8C1615.6 842.4 1614.67 842 1614.67 843.867Z" fill="#1E2033"/>
<path d="M1529.33 904.667C1529.33 904.933 1530.13 905.733 1531.07 906.533C1532.4 907.6 1532.93 907.467 1532.93 906.267C1532.93 905.2 1532.13 904.4 1531.07 904.4C1530.13 904.4 1529.33 904.533 1529.33 904.667Z" fill="#1E2033"/>
<path d="M1212.67 1501.33C1212.27 1502.13 1212.8 1502.27 1213.87 1501.87C1216.27 1500.93 1216.67 1500 1214.8 1500C1214 1500 1213.07 1500.53 1212.67 1501.33Z" fill="#1E2033"/>
<path d="M1205.33 1506.53C1205.33 1507.47 1204.67 1507.73 1203.73 1507.2C1202.8 1506.53 1202.67 1506.8 1203.33 1507.87C1204 1509.07 1204.67 1509.2 1205.73 1508.13C1206.53 1507.33 1206.8 1506.27 1206.27 1505.73C1205.73 1505.33 1205.33 1505.6 1205.33 1506.53Z" fill="#1E2033"/>
<path d="M1128.93 1551.73C1129.33 1552.67 1130.13 1553.07 1130.53 1552.4C1130.93 1551.87 1131.87 1550.93 1132.53 1550.4C1133.07 1549.87 1132.4 1549.6 1130.93 1549.73C1129.33 1549.87 1128.53 1550.53 1128.93 1551.73Z" fill="#1E2033"/>
</g>
<defs>
<clipPath id="clip0_1_2">
<rect width="2184" height="2184" fill="white"/>
</clipPath>
</defs>
</svg>
